<?xml version="1.0" encoding="UTF-8"?>
<svg version="1.1" xmlns="http://www.w3.org/2000/svg" width="1000" height="1000">
<path d="M0 0 C330 0 660 0 1000 0 C1000 330 1000 660 1000 1000 C670 1000 340 1000 0 1000 C0 670 0 340 0 0 Z " fill="#18355D" transform="translate(0,0)"/>
<path d="M0 0 C172.26 0 344.52 0 522 0 C522.144375 72.496875 522.28875 144.99375 522.4375 219.6875 C522.50122803 242.59244873 522.56495605 265.49739746 522.63061523 289.09643555 C522.66223145 317.03088379 522.66223145 317.03088379 522.66810608 330.10139465 C522.67463697 339.24511796 522.70032704 348.38854229 522.73902893 357.53218079 C522.7836023 368.07860389 522.80384797 378.62473997 522.79411465 389.17125796 C522.78989947 394.56580589 522.79655943 399.95971241 522.83450592 405.35414255 C522.86864184 410.23659505 522.87021988 415.11795437 522.84630775 420.00045776 C522.84334965 421.76125809 522.85213957 423.5221278 522.87417805 425.28279269 C523.07412735 442.26090472 517.30704457 452.21978719 506 465 C505.28972656 465.81984375 504.57945312 466.6396875 503.84765625 467.484375 C495.48069615 476.98609461 486.67221016 485.93002063 476.75 493.80859375 C473.94587454 496.04313123 471.22624417 498.35883311 468.5 500.6875 C434.97602546 528.60257275 396.54895374 550.38800824 358.328125 571.09765625 C354.86571129 572.97637348 351.41853668 574.87873539 347.984375 576.80859375 C337.69864413 582.57647435 327.2697771 587.85984203 316.59765625 592.875 C311.47683414 595.28479864 306.38907296 597.75673961 301.30859375 600.25 C299.79584365 600.99069559 298.28306692 601.7313368 296.77026367 602.47192383 C294.51697615 603.57523137 292.26463325 604.68027419 290.01504517 605.79110718 C287.91362392 606.828277 285.80877459 607.85816683 283.703125 608.88671875 C283.06978745 609.20177368 282.43644989 609.51682861 281.78392029 609.84143066 C278.97688851 611.20528153 277.16688651 612 274 612 C274 559.2 274 506.4 274 452 C318.91872954 434.03250818 360.39533104 435.0405723 407.2525177 442.81962585 C430.19194232 446.56252216 450.43681015 445.50936466 472.3203125 437.3046875 C475.26881145 436.25925369 477.94457292 435.56323962 481 435 C472.65421812 416.32537063 464.24730232 397.678931 455.80151367 379.04931641 C450.81925252 368.05412495 445.88657347 357.03805468 441 346 C437.9790116 347.46641516 435.43634444 349.10554526 432.75 351.125 C421.8319785 358.83183871 409.63434641 363.84689621 397 368 C396.20335937 368.28488281 395.40671875 368.56976562 394.5859375 368.86328125 C378.81401529 374.45514458 362.31835315 375.57672646 345.79248047 377.34277344 C316.5250379 380.51452393 283.49502145 386.73036775 263.71875 410.7734375 C263.1515625 411.50820313 262.584375 412.24296875 262 413 C258.55865613 411.56485441 256.89964864 409.85543163 254.625 406.9375 C234.65955313 383.94026305 198.20023374 379.58628289 169.75 376.5625 C142.00272727 373.58019004 105.09149718 368.44918331 84.33203125 347.30078125 C83.07181867 345.7671118 83.07181867 345.7671118 81 346 C80.6095752 346.88631104 80.21915039 347.77262207 79.81689453 348.68579102 C71.10212882 368.45257948 62.23550114 388.14039879 53.11767578 407.72485352 C48.91985863 416.75393137 44.85422637 425.81825306 41 435 C41.75289307 435.13809082 42.50578613 435.27618164 43.28149414 435.41845703 C46.12710139 436.02718954 48.71606942 436.99367017 51.41503906 438.06982422 C80.85190952 449.78913841 111.65946126 444.15501168 142.04321289 438.9519043 C178.71846607 432.69269719 213.5503954 439.30804041 248 452 C248 504.8 248 557.6 248 612 C243.97508917 611.19501783 241.49313724 610.44379704 237.921875 608.69921875 C236.44678467 607.98451416 236.44678467 607.98451416 234.94189453 607.25537109 C233.88856934 606.73797363 232.83524414 606.22057617 231.75 605.6875 C229.49232711 604.58955663 227.2345105 603.49190874 224.9765625 602.39453125 C223.8205957 601.83072754 222.66462891 601.26692383 221.47363281 600.68603516 C218.14366716 599.0697333 214.8049264 597.47377366 211.4609375 595.88671875 C199.69231958 590.2988133 188.04599803 584.55680997 176.57470703 578.38085938 C173.72170102 576.8507435 170.85916117 575.33932628 167.99609375 573.828125 C152.02548822 565.36079855 136.47093299 556.3401377 121 547 C119.6687207 546.20070068 119.6687207 546.20070068 118.31054688 545.38525391 C91.13721592 529.06735867 64.78008305 510.99980574 41 490 C40.12988281 489.24203125 39.25976562 488.4840625 38.36328125 487.703125 C26.8978146 477.58545073 15.48964079 466.81089989 7 454 C6.41960699 453.14905551 5.83921397 452.29811103 5.24123329 451.42138034 C-0.69917031 441.7423357 -0.98054645 433.78061484 -0.84178162 422.69462585 C-0.84484903 420.86875679 -0.85099745 419.04289076 -0.85993958 417.21704102 C-0.87556037 412.21999589 -0.84765928 407.22401066 -0.8125091 402.2271 C-0.78183924 396.7483108 -0.79217814 391.26956682 -0.79723454 385.79071522 C-0.80094921 375.16582163 -0.76869632 364.54134372 -0.72372523 353.91655679 C-0.67324566 341.62129186 -0.6677577 329.32627516 -0.66223145 317.03088379 C-0.62550695 284.5830235 -0.52777881 252.13525548 -0.4375 219.6875 C-0.293125 147.190625 -0.14875 74.69375 0 0 Z " fill="#FEFEFE" transform="translate(239,240)"/>
<path d="M0 0 C5.65172225 4.2708477 9.63644895 9.46726781 14 15 C14.79792969 15.99386719 15.59585938 16.98773438 16.41796875 18.01171875 C50.60926769 61.33519293 67.90571582 112.65311394 79 166 C83.95297163 156.62681964 88.2139548 147.63070277 90.875 137.3125 C91.15601563 136.30123047 91.43703125 135.28996094 91.7265625 134.24804688 C94.95712752 122.26295543 96.34659745 110.65242297 96.25 98.25 C96.24613281 97.03731445 96.24226562 95.82462891 96.23828125 94.57519531 C96.14912186 85.27042234 95.46950384 76.18439899 94 67 C105.19319863 77.82687576 113.94360363 90.74835737 122 104 C122.49000488 104.80179687 122.98000977 105.60359375 123.48486328 106.4296875 C147.09187452 145.40288253 163.71485094 193.7365959 153.58642578 239.62890625 C148.04486352 262.03508971 137.3203507 283.54291081 118 297 C106.18828605 303.941701 94.26884931 308.17538121 80.5625 308.1875 C79.83740234 308.19974609 79.11230469 308.21199219 78.36523438 308.22460938 C72.57377165 308.24021979 67.48776598 307.42158056 62.375 304.5 C57.2644363 299.12045926 54.69564518 293.38411946 54.5625 285.9375 C54.74667326 281.55640876 55.47646642 277.57906862 56.54296875 273.34375 C58.06168396 265.55546689 57.81742033 257.07307982 54 250 C48.84027778 242.66963601 43.47470314 238.82490105 35 236 C20.65312672 235.14554633 9.50383519 237.76806702 -2.140625 246.62890625 C-11.93735578 255.78576047 -18.98921675 270.05363204 -22 283 C-21.16597656 282.7834375 -20.33195312 282.566875 -19.47265625 282.34375 C-12.83610879 280.70171764 -6.83971234 279.33809235 0 280 C2.1353797 281.55785655 2.89134613 282.44075216 3.3984375 285.05078125 C3.33106575 291.55215478 2.05599392 295.53280729 -2.1875 300.625 C-10.54119113 307.67922806 -19.35039303 308.65613692 -30 308 C-44.21498923 306.21419733 -57.26393978 299.29840205 -68 290 C-69.5159375 288.88625 -69.5159375 288.88625 -71.0625 287.75 C-83.55422272 277.13203569 -90.18455414 258.85946104 -92 243 C-94.86762637 202.27970557 -70.16142583 166.98165118 -48.730896 134.48051453 C-6.83531302 72.52184709 -6.83531302 72.52184709 0 0 Z " fill="#19355D" transform="translate(468,280)"/>
<path d="M0 0 C1.7074998 1.28062485 3.37373596 2.61767557 5 4 C5 4.66 5 5.32 5 6 C4.34 6 3.68 6 3 6 C3 13.59 3 21.18 3 29 C2.67 29 2.34 29 2 29 C1.97494385 28.3702124 1.9498877 27.7404248 1.92407227 27.09155273 C1.80721573 24.20670659 1.68489979 21.32211605 1.5625 18.4375 C1.52318359 17.44685547 1.48386719 16.45621094 1.44335938 15.43554688 C1.21827654 10.22401363 0.85894761 5.14646762 0 0 Z " fill="#2B3F5C" transform="translate(468,280)"/>
</svg>
